<svg width="739" height="792" viewBox="0 0 739 792" fill="none" xmlns="http://www.w3.org/2000/svg">
<path d="M373.258 279.4C400.858 279.4 423.458 285.4 441.058 297.4C459.058 309.4 472.258 325 480.658 344.2C489.458 363 493.858 383.2 493.858 404.8C493.858 411.2 493.458 418 492.658 425.2C491.858 432 490.458 438.8 488.458 445.6H306.058C306.058 477.6 313.658 502.2 328.858 519.4C344.058 536.2 363.858 544.6 388.258 544.6C399.858 544.6 412.258 542.6 425.458 538.6C439.058 534.6 453.058 528.4 467.458 520L486.658 560.8C473.058 571.6 455.858 579.6 435.058 584.8C414.658 590 396.258 592.6 379.858 592.6C356.658 592.6 335.658 589 316.858 581.8C298.458 574.6 282.658 564.2 269.458 550.6C256.658 537 246.858 520.8 240.058 502C233.258 483.2 229.858 462.2 229.858 439C229.858 417.8 233.058 397.8 239.458 379C245.858 359.8 255.258 342.8 267.658 328C280.058 312.8 295.058 301 312.658 292.6C330.658 283.8 350.858 279.4 373.258 279.4ZM370.258 328.6C357.058 328.6 345.858 332.2 336.658 339.4C327.858 346.6 321.058 355.6 316.258 366.4C311.458 377.2 308.658 387.8 307.858 398.2H418.858C420.858 386.6 420.258 375.6 417.058 365.2C413.858 354.4 408.258 345.6 400.258 338.8C392.258 332 382.258 328.6 370.258 328.6Z" fill="#0E0D0B"/>
<circle cx="369.5" cy="422.5" r="349.5" stroke="#0E0D0B" stroke-width="40" stroke-linecap="square" stroke-dasharray="200 200"/>
</svg>
