<svg width="703" height="831" viewBox="0 0 703 831" fill="none" xmlns="http://www.w3.org/2000/svg">
	<circle cx="351.5" cy="479.5" r="339" stroke="#F9C87E" stroke-width="25" />
	<path
		d="M359.442 331.6C394.642 331.6 422.042 342.4 441.642 364C461.642 385.2 471.642 418.4 471.642 463.6H259.842L259.242 452.2H414.042C414.842 432.6 413.242 414.6 409.242 398.2C405.242 381.4 398.842 368 390.042 358C381.642 348 370.642 343 357.042 343C338.642 343 322.242 352.2 307.842 370.6C293.842 389 285.442 418.2 282.642 458.2L284.442 460.6C283.642 466.6 283.042 473.2 282.642 480.4C282.242 487.6 282.042 494.8 282.042 502C282.042 529.2 286.442 552.6 295.242 572.2C304.042 591.8 315.442 606.8 329.442 617.2C343.842 627.2 358.642 632.2 373.842 632.2C385.842 632.2 397.242 630.4 408.042 626.8C418.842 622.8 428.842 616.4 438.042 607.6C447.242 598.8 455.242 587 462.042 572.2L474.042 577C469.642 590.2 462.442 603 452.442 615.4C442.442 627.8 429.842 638 414.642 646C399.442 653.6 381.842 657.4 361.842 657.4C333.042 657.4 308.242 650.8 287.442 637.6C267.042 624.4 251.242 606.2 240.042 583C229.242 559.4 223.842 532.4 223.842 502C223.842 466.8 229.442 436.6 240.642 411.4C251.842 385.8 267.642 366.2 288.042 352.6C308.442 338.6 332.242 331.6 359.442 331.6Z"
		fill="#F9C87E" />
</svg>
