<svg width="739" height="845" viewBox="0 0 739 845" fill="none" xmlns="http://www.w3.org/2000/svg">
	<path
		d="M376.442 331.6C411.642 331.6 439.042 342.4 458.642 364C478.642 385.2 488.642 418.4 488.642 463.6H276.842L276.242 452.2H431.042C431.842 432.6 430.242 414.6 426.242 398.2C422.242 381.4 415.842 368 407.042 358C398.642 348 387.642 343 374.042 343C355.642 343 339.242 352.2 324.842 370.6C310.842 389 302.442 418.2 299.642 458.2L301.442 460.6C300.642 466.6 300.042 473.2 299.642 480.4C299.242 487.6 299.042 494.8 299.042 502C299.042 529.2 303.442 552.6 312.242 572.2C321.042 591.8 332.442 606.8 346.442 617.2C360.842 627.2 375.642 632.2 390.842 632.2C402.842 632.2 414.242 630.4 425.042 626.8C435.842 622.8 445.842 616.4 455.042 607.6C464.242 598.8 472.242 587 479.042 572.2L491.042 577C486.642 590.2 479.442 603 469.442 615.4C459.442 627.8 446.842 638 431.642 646C416.442 653.6 398.842 657.4 378.842 657.4C350.042 657.4 325.242 650.8 304.442 637.6C284.042 624.4 268.242 606.2 257.042 583C246.242 559.4 240.842 532.4 240.842 502C240.842 466.8 246.442 436.6 257.642 411.4C268.842 385.8 284.642 366.2 305.042 352.6C325.442 338.6 349.242 331.6 376.442 331.6Z"
		fill="#FFF9F0" />
	<circle cx="369.5" cy="475.5" r="359.5" stroke="#FFF9F0" stroke-width="20" stroke-linecap="square"
		stroke-dasharray="200 200" />
</svg>
