<svg xmlns="http://www.w3.org/2000/svg" width="739" height="845" fill="none">
	<path fill="#FFF9F0"
		d="M376.442 331.6c35.2 0 62.6 10.8 82.2 32.4 20 21.2 30 54.4 30 99.6h-211.8l-.6-11.4h154.8c.8-19.6-.8-37.6-4.8-54-4-16.8-10.4-30.2-19.2-40.2-8.4-10-19.4-15-33-15-18.4 0-34.8 9.2-49.2 27.6-14 18.4-22.4 47.6-25.2 87.6l1.8 2.4c-.8 6-1.4 12.6-1.8 19.8-.4 7.2-.6 14.4-.6 21.6 0 27.2 4.4 50.6 13.2 70.2 8.8 19.6 20.2 34.6 34.2 45 14.4 10 29.2 15 44.4 15 12 0 23.4-1.8 34.2-5.4 10.8-4 20.8-10.4 30-19.2 9.2-8.8 17.2-20.6 24-35.4l12 4.8c-4.4 13.2-11.6 26-21.6 38.4-10 12.4-22.6 22.6-37.8 30.6-15.2 7.6-32.8 11.4-52.8 11.4-28.8 0-53.6-6.6-74.4-19.8-20.4-13.2-36.2-31.4-47.4-54.6-10.8-23.6-16.2-50.6-16.2-81 0-35.2 5.6-65.4 16.8-90.6 11.2-25.6 27-45.2 47.4-58.8 20.4-14 44.2-21 71.4-21Z" />
	<circle cx="369.5" cy="475.5" r="359.5" stroke="#FFF9F0" stroke-dasharray="200 200" stroke-linecap="square"
		stroke-width="20" />
</svg>
